#!OML:ASF E:\Steps\Project 1\Capture day 1\Session 2\Subject.ASF
:FULLY-SPECIFIED
:DEGREES
400
root 9.01382 16.1189 11.6304 -158.163 4.48619 176.694
lowerback -26.4635 -0.756135 -8.13785
upperback -0.728344 2.1928 -1.45578
thorax 13.8289 0.709974 3.87166
lowerneck -4.46747 -1.74035 -0.953441
upperneck 17.1675 -3.63574 2.65591
head 5.98913 -1.98919 0.72349
rclavicle 6.65929e-015 -5.4467e-014
rhumerus -34.6164 -15.3879 -79.2169
rradius 33.3867
rwrist -4.74028
rhand -8.96104 -50.3189
rfingers 7.12502
rthumb 16.9839 -79.5964
lclavicle 6.65929e-015 -5.4467e-014
lhumerus -33.1697 22.4379 70.8091
lradius 10.7555
lwrist -24.191
lhand -17.7243 -12.4435
lfingers 7.12502
lthumb 8.53645 17.364
rfemur -21.6735 -1.42897 19.4179
rtibia 44.7712
rfoot -9.76447 -0.727819
rtoes -38.0817
lfemur -36.8109 -6.54348 -23.5546
ltibia 17.4899
lfoot -2.39934 0.582692
ltoes -34.7042
401
root 8.99741 16.1236 11.5176 -157.997 4.69896 176.542
lowerback -26.3782 -0.821699 -8.19308
upperback -0.91788 2.13451 -1.50114
thorax 13.5648 0.710495 3.82752
lowerneck -4.45424 -1.75013 -0.856769
upperneck 17.2709 -3.65214 2.5006
head 6.01539 -2.00734 0.656425
rclavicle -2.23633e-015 -1.98785e-014
rhumerus -35.2233 -14.9327 -79.1762
rradius 33.4358
rwrist -4.93944
rhand -8.71546 -50.3637
rfingers 7.12502
rthumb 17.2203 -79.6207
lclavicle -2.23633e-015 -1.98785e-014
lhumerus -32.9934 19.9995 72.3159
lradius 11.508
lwrist -21.4796
lhand -17.8692 -12.448
lfingers 7.12502
lthumb 8.39654 17.3651
rfemur -23.4071 -2.02618 19.067
rtibia 47.5276
rfoot -7.9017 -0.466253
rtoes -38.0326
lfemur -36.3433 -6.24359 -24.0273
ltibia 17.1303
lfoot -2.4802 0.38511
ltoes -35.827
402
root 8.98447 16.1275 11.4104 -157.829 4.88445 176.487
lowerback -26.338 -0.90208 -8.11069
upperback -0.996038 2.01465 -1.55783
thorax 13.4698 0.675632 3.67049
lowerneck -4.50481 -1.67719 -0.815287
upperneck 17.0893 -3.5462 2.59988
head 5.96606 -1.93999 0.688929
rclavicle 9.29318e-015 3.1408e-014
rhumerus -35.4364 -14.7685 -79.2038
rradius 33.1541
rwrist -4.37061
rhand -8.53532 -49.9504
rfingers 7.12502
rthumb 17.3937 -79.1921
lclavicle 9.29318e-015 3.1408e-014
lhumerus -32.667 18.2625 73.3918
lradius 12.1242
lwrist -19.471
lhand -18.2051 -12.3595
lfingers 7.12502
lthumb 8.07239 17.4663
rfemur -25.2049 -2.48521 18.9017
rtibia 50.3195
rfoot -6.24682 -0.218428
rtoes -38.2442
lfemur -35.9727 -5.82587 -24.3718
ltibia 16.9337
lfoot -2.69622 0.120993
ltoes -35.9681
403
root 8.97689 16.1338 11.306 -157.875 4.96736 176.306
lowerback -26.0599 -1.06621 -8.17557
upperback -1.01704 1.80014 -1.62941
thorax 13.319 0.586327 3.54042
lowerneck -4.44092 -2.56292 -0.8254
upperneck 16.8189 -3.04877 2.59181
head 5.86176 -1.03087 0.791415
rclavicle -1.54058e-015 -1.35174e-014
rhumerus -35.5884 -14.4831 -79.3152
rradius 32.7974
rwrist -3.75716
rhand -8.36814 -49.6547
rfingers 7.12502
rthumb 17.5546 -78.8822
lclavicle -1.54058e-015 -1.35174e-014
lhumerus -32.4138 16.8375 74.245
lradius 12.8383
lwrist -17.5719
lhand -18.292 -12.2023
lfingers 7.12502
lthumb 7.98847 17.6268
rfemur -26.8025 -2.87762 18.6772
rtibia 53.0718
rfoot -4.87635 -0.370315
rtoes -38.7453
lfemur -35.473 -5.48445 -24.8104
ltibia 16.9127
lfoot -3.08904 -0.291656
ltoes -34.429
404
root 8.97208 16.1381 11.2078 -157.978 5.12532 175.977
lowerback -25.7421 -1.26558 -8.54921
upperback -1.03525 1.61979 -1.65742
thorax 13.1374 0.492478 3.6498
lowerneck -4.33115 -2.48941 -0.954188
upperneck 16.5684 -2.95035 2.57343
head 5.76408 -1.00576 0.813424
rclavicle 3.57812e-015 -1.31198e-014
rhumerus -35.8896 -14.0116 -79.4146
rradius 32.7173
rwrist -3.77901
rhand -8.56893 -49.5699
rfingers 7.12502
rthumb 17.3613 -78.8145
lclavicle 3.57812e-015 -1.31198e-014
lhumerus -32.2831 15.5463 75.118
lradius 13.605
lwrist -15.8809
lhand -17.9438 -12.1415
lfingers 7.12502
lthumb 8.32462 17.6744
rfemur -28.4373 -3.18105 18.2988
rtibia 55.8361
rfoot -3.98389 -1.04248
rtoes -39.3582
lfemur -34.8892 -5.12475 -25.4101
ltibia 16.7543
lfoot -3.52911 -0.72687
ltoes -30.8239
405
root 8.96794 16.1406 11.1169 -158.099 5.3782 175.656
lowerback -25.4921 -1.40729 -9.00932
upperback -0.956736 1.53273 -1.64262
thorax 13.0936 0.41929 3.89232
lowerneck -4.21651 -2.41952 -0.818304
upperneck 16.177 -2.85648 2.30804
head 5.61428 -0.990567 0.713386
rclavicle 2.43511e-015 2.06736e-014
rhumerus -35.9768 -14.0134 -79.2922
rradius 32.5404
rwrist -3.52938
rhand -8.6721 -49.1517
rfingers 7.12502
rthumb 17.262 -78.405
lclavicle 2.43511e-015 2.06736e-014
lhumerus -31.908 14.277 76.1092
lradius 14.2332
lwrist -14.5711
lhand -17.8719 -11.9677
lfingers 7.12502
lthumb 8.394 17.8455
rfemur -30.1204 -3.38252 17.9447
rtibia 58.5481
rfoot -3.79985 -2.2165
rtoes -39.511
lfemur -34.2905 -4.76267 -25.9845
ltibia 16.5136
lfoot -3.96281 -1.00481
ltoes -28.5673
406
root 8.96054 16.1454 11.0144 -158.246 5.33137 175.552
lowerback -25.3519 -1.52046 -9.10001
upperback -0.803601 1.37524 -1.59655
thorax 13.214 0.320545 3.93657
lowerneck -4.56774 -2.33072 -0.82487
upperneck 16.4027 -2.72483 2.2023
head 5.74174 -0.930844 0.686009
rclavicle -2.33572e-014 7.35503e-014
rhumerus -36.0433 -14.252 -79.0554
rradius 32.4005
rwrist -2.92189
rhand -8.36062 -49.4713
rfingers 7.12502
rthumb 17.5618 -78.6981
lclavicle -2.33572e-014 7.35503e-014
lhumerus -31.4684 12.7659 77.1439
lradius 14.9619
lwrist -13.1509
lhand -18.4029 -11.6918
lfingers 7.12502
lthumb 7.88147 18.1413
rfemur -31.4861 -3.64561 17.9278
rtibia 60.7918
rfoot -4.23745 -3.80872
rtoes -38.9097
lfemur -33.5715 -4.68639 -26.2535
ltibia 16.1897
lfoot -4.05404 -1.2268
ltoes -30.2882
407
root 8.95015 16.1518 10.9023 -158.344 4.99905 175.603
lowerback -25.2488 -1.68905 -8.88179
upperback -0.715123 1.05745 -1.52969
thorax 13.3034 0.173827 3.77257
lowerneck -4.50497 -2.30509 -0.826173
upperneck 16.3939 -2.67862 2.13036
head 5.72647 -0.914394 0.667109
rclavicle -3.8266e-015 3.02153e-014
rhumerus -36.2155 -14.4135 -78.843
rradius 32.2373
rwrist -2.178
rhand -7.87301 -50.5162
rfingers 7.12502
rthumb 18.031 -79.7004
lclavicle -3.8266e-015 3.02153e-014
lhumerus -31.1987 11.4935 77.8997
lradius 15.6279
lwrist -11.8329
lhand -18.8249 -11.7742
lfingers 7.12502
lthumb 7.47416 18.0738
rfemur -32.6629 -4.03409 18.1526
rtibia 62.5678
rfoot -4.99271 -5.48152
rtoes -38.4935
lfemur -32.8306 -4.72535 -26.3654
ltibia 15.8973
lfoot -4.11133 -1.57154
ltoes -31.9068
408
root 8.94252 16.1594 10.7995 -158.492 4.79615 175.572
lowerback -25.0653 -1.87338 -8.77988
upperback -0.592755 0.745677 -1.48498
thorax 13.3855 0.0217545 3.65007
lowerneck -4.1668 -2.19964 -0.965106
upperneck 15.8657 -2.5601 2.2257
head 5.50452 -0.879239 0.729142
rclavicle -5.71506e-015 1.51076e-014
rhumerus -36.2118 -14.6332 -78.7112
rradius 31.8901
rwrist -1.72198
rhand -7.84176 -51.0233
rfingers 7.12502
rthumb 18.0611 -80.2047
lclavicle -5.71506e-015 1.51076e-014
lhumerus -30.7717 10.6311 78.4316
lradius 16.0431
lwrist -10.9667
lhand -18.9453 -11.7886
lfingers 7.12502
lthumb 7.35799 18.0635
rfemur -33.9142 -4.30717 18.2545
rtibia 64.1895
rfoot -5.70543 -7.12946
rtoes -38.4994
lfemur -32.1221 -4.75675 -26.5533
ltibia 15.7323
lfoot -4.27095 -1.78109
ltoes -32.9934
409
root 8.93562 16.1685 10.7059 -158.62 4.80886 175.538
lowerback -24.9278 -1.95321 -8.73925
upperback -0.436321 0.601691 -1.48412
thorax 13.5118 -0.0594941 3.57237
lowerneck -4.0633 -1.98829 -1.06636
upperneck 15.3572 -2.31168 2.331
head 5.32678 -0.779296 0.792758
rclavicle 2.68359e-015 -5.52621e-014
rhumerus -36.2501 -14.8806 -78.6566
rradius 31.6692
rwrist -2.00099
rhand -8.41472 -50.6509
rfingers 7.12502
rthumb 17.5098 -79.8824
lclavicle 2.68359e-015 -5.52621e-014
lhumerus -30.2359 9.35657 79.06
lradius 16.571
lwrist -10.0258
lhand -19.158 -11.7814
lfingers 7.12502
lthumb 7.15262 18.0777
rfemur -35.2973 -4.33479 18.266
rtibia 65.7108
rfoot -6.42496 -8.64665
rtoes -38.4017
lfemur -31.4941 -4.86245 -26.6732
ltibia 15.5505
lfoot -4.37688 -1.69764
ltoes -33.8632
410
root 8.92881 16.1789 10.6156 -158.648 4.81883 175.597
lowerback -24.6034 -1.96243 -8.62179
upperback -0.492241 0.509105 -1.46746
thorax 13.2758 -0.0845219 3.48997
lowerneck -4.70171 -1.9651 -0.982357
upperneck 16.581 -2.21445 2.23682
head 5.81456 -0.687366 0.754634
rclavicle 4.27387e-015 4.01545e-014
rhumerus -36.7387 -15.1621 -78.4137
rradius 31.5701
rwrist -2.28922
rhand -8.99872 -50.1095
rfingers 7.12502
rthumb 16.9477 -79.3901
lclavicle 4.27387e-015 4.01545e-014
lhumerus -29.9938 7.95746 79.6345
lradius 17.1651
lwrist -9.12894
lhand -19.2052 -11.8296
lfingers 7.12502
lthumb 7.10704 18.0311
rfemur -36.7465 -4.28007 18.3618
rtibia 67.0701
rfoot -7.35147 -9.84483
rtoes -37.9763
lfemur -30.9508 -4.94807 -26.6687
ltibia 15.2833
lfoot -4.56074 -1.57351
ltoes -33.5403
411
root 8.92428 16.1904 10.525 -158.665 4.65713 175.753
lowerback -24.3614 -2.00012 -8.35767
upperback -0.493888 0.336955 -1.4055
thorax 13.1582 -0.14849 3.34796
lowerneck -4.44162 -2.16736 -1.02686
upperneck 16.4764 -2.50456 2.38233
head 5.74435 -0.822102 0.791185
rclavicle -1.06847e-014 -4.25399e-014
rhumerus -37.1455 -15.6733 -78.0469
rradius 31.3834
rwrist -2.10963
rhand -9.28799 -50.0147
rfingers 7.12502
rthumb 16.6692 -79.319
lclavicle -1.06847e-014 -4.25399e-014
lhumerus -29.5729 7.33401 79.9549
lradius 17.5274
lwrist -8.89857
lhand -19.1577 -11.8178
lfingers 7.12502
lthumb 7.15292 18.0413
rfemur -38.0529 -4.29407 18.5982
rtibia 67.9655
rfoot -8.11102 -10.7525
rtoes -37.8942
lfemur -30.4006 -5.01628 -26.5567
ltibia 14.9753
lfoot -4.76828 -1.53191
ltoes -33.0307
412
root 8.91853 16.2019 10.432 -158.738 4.46552 175.881
lowerback -24.4791 -2.05734 -8.07515
upperback -0.241937 0.171202 -1.35607
thorax 13.5382 -0.241559 3.17998
lowerneck -4.1758 -2.129 -1.1641
upperneck 16.0199 -2.4805 2.5133
head 5.55884 -0.82789 0.857134
rclavicle 2.5345e-015 3.97569e-015
rhumerus -37.1122 -16.456 -77.7142
rradius 31.0184
rwrist -1.75245
rhand -9.33226 -49.9859
rfingers 7.12502
rthumb 16.6266 -79.2938
lclavicle 2.5345e-015 3.97569e-015
lhumerus -28.6912 6.92541 80.2236
lradius 17.6877
lwrist -9.00858
lhand -19.4231 -12.0659
lfingers 7.12502
lthumb 6.8967 17.8017
rfemur -39.1671 -4.27514 18.7467
rtibia 68.4123
rfoot -8.73947 -11.3773
rtoes -37.9119
lfemur -29.75 -5.175 -26.466
ltibia 14.6181
lfoot -4.92824 -1.39918
ltoes -32.2653
